o
v 6.614015 -0.063428 4.157199
v 5.942016 0.012019 4.157199
v 5.942016 -0.012019 4.157199
v 7.043714 0.000000 4.157199
v 5.942016 0.012019 4.157199
v 6.614015 -0.063428 4.157199
v 6.614015 0.063428 4.157199
v 5.942016 0.012019 4.157199
v 7.043714 0.000000 4.157199
v -7.649984 0.000000 -0.620000
v -7.074957 -0.403450 -0.684268
v -7.074984 -0.393008 -0.495246
v -7.649984 0.000000 -0.620000
v -7.074984 0.393008 -0.495246
v -7.074957 0.403450 -0.684268
v -7.649984 0.000000 -0.620000
v -7.074984 -0.393008 -0.495246
v -7.074984 -0.354637 -0.334026
v -7.649984 0.000000 -0.620000
v -7.074984 0.354637 -0.334026
v -7.074984 0.393008 -0.495246
v -7.649984 0.000000 -0.620000
v -7.074984 -0.354637 -0.334026
v -7.074984 -0.304058 -0.264426
v -7.649984 0.000000 -0.620000
v -7.074984 0.304058 -0.264426
v -7.074984 0.354637 -0.334026
v -7.649984 0.000000 -0.620000
v -7.074984 -0.304058 -0.264426
v -7.074984 -0.139529 -0.169387
v -7.649984 0.000000 -0.620000
v -7.074984 0.139529 -0.169387
v -7.074984 0.304058 -0.264426
v -7.649984 0.000000 -0.620000
v -7.074984 -0.139529 -0.169387
v -7.074984 -0.057454 -0.155083
v -7.649984 0.000000 -0.620000
v -7.074984 0.057454 -0.155083
v -7.074984 0.139529 -0.169387
v -7.649984 0.000000 -0.620000
v -7.074984 -0.057454 -0.155083
v -7.074984 0.057454 -0.155083
v -7.074957 -0.403450 -0.684268
v -6.499931 -0.693962 -0.748535
v -7.074984 -0.393008 -0.495246
v -7.074984 0.393008 -0.495246
v -6.499931 0.693962 -0.748535
v -7.074957 0.403450 -0.684268
v -7.074984 -0.393008 -0.495246
v -6.499984 -0.676000 -0.433500
v -7.074984 -0.354637 -0.334026
v -6.499931 -0.693962 -0.748535
v -6.499984 -0.676000 -0.433500
v -7.074984 -0.393008 -0.495246
v -7.074984 0.354637 -0.334026
v -6.499984 0.676000 -0.433500
v -7.074984 0.393008 -0.495246
v -7.074984 0.393008 -0.495246
v -6.499984 0.676000 -0.433500
v -6.499931 0.693962 -0.748535
v -7.074984 -0.354637 -0.334026
v -6.499984 -0.610000 -0.164800
v -7.074984 -0.304058 -0.264426
v -6.499984 -0.676000 -0.433500
v -6.499984 -0.610000 -0.164800
v -7.074984 -0.354637 -0.334026
v -7.074984 0.304058 -0.264426
v -6.499984 0.610000 -0.164800
v -7.074984 0.354637 -0.334026
v -7.074984 0.354637 -0.334026
v -6.499984 0.610000 -0.164800
v -6.499984 0.676000 -0.433500
v -7.074984 -0.304058 -0.264426
v -6.499984 -0.523000 -0.048800
v -7.074984 -0.139529 -0.169387
v -6.499984 -0.610000 -0.164800
v -6.499984 -0.523000 -0.048800
v -7.074984 -0.304058 -0.264426
v -7.074984 0.139529 -0.169387
v -6.499984 0.523000 -0.048800
v -7.074984 0.304058 -0.264426
v -7.074984 0.304058 -0.264426
v -6.499984 0.523000 -0.048800
v -6.499984 0.610000 -0.164800
v -6.499984 -0.523000 -0.048800
v -6.499984 -0.240000 0.109600
v -7.074984 -0.139529 -0.169387
v -7.074984 0.139529 -0.169387
v -6.499984 0.240000 0.109600
v -6.499984 0.523000 -0.048800
v -7.649984 0.000000 -0.620000
v -4.999902 -1.000020 -0.943979
v -7.074957 -0.403450 -0.684268
v -7.074957 -0.403450 -0.684268
v -4.999902 -1.000020 -0.943979
v -6.499931 -0.693962 -0.748535
v -7.649984 0.000000 -0.620000
v -7.074957 0.403450 -0.684268
v -4.999902 1.000020 -0.943979
v -7.649984 0.000000 -0.620000
v -4.999902 1.000020 -0.943979
v -4.999902 -1.000020 -0.943979
v -6.499931 0.693962 -0.748535
v -4.999902 1.000020 -0.943979
v -7.074957 0.403450 -0.684268
v -6.499984 -0.610000 -0.164800
v -5.349121 -0.814175 0.247113
v -6.499984 -0.523000 -0.048800
v -6.499984 0.523000 -0.048800
v -5.349121 0.814175 0.247113
v -6.499984 0.610000 -0.164800
v 7.043714 0.000000 4.157199
v 6.614015 -0.063428 4.157199
v 4.400283 -4.682100 -0.952940
v -7.074984 -0.139529 -0.169387
v -4.999948 -0.160720 0.980689
v -7.074984 -0.057454 -0.155083
v -6.499984 -0.240000 0.109600
v -4.999948 -0.160720 0.980689
v -7.074984 -0.139529 -0.169387
v 5.942016 0.012019 4.157199
v -4.999948 -0.160720 0.980689
v 5.942016 -0.012019 4.157199
v -7.074984 -0.057454 -0.155083
v -4.999948 -0.160720 0.980689
v -7.074984 0.057454 -0.155083
v -7.074984 0.057454 -0.155083
v -4.999948 0.160720 0.980689
v -7.074984 0.139529 -0.169387
v -7.074984 0.139529 -0.169387
v -4.999948 0.160720 0.980689
v -6.499984 0.240000 0.109600
v -4.999948 -0.160720 0.980689
v -4.999948 0.160720 0.980689
v -7.074984 0.057454 -0.155083
v 5.942016 0.012019 4.157199
v -4.999948 0.160720 0.980689
v -4.999948 -0.160720 0.980689
v 6.614015 0.063428 4.157199
v 7.043714 0.000000 4.157199
v 4.400283 4.682100 -0.952940
v -5.349121 -0.814175 0.247113
v -4.999759 -0.491153 0.805206
v -6.499984 -0.523000 -0.048800
v -6.499984 -0.523000 -0.048800
v -4.999759 -0.491153 0.805206
v -6.499984 -0.240000 0.109600
v -6.499984 -0.240000 0.109600
v -4.999759 -0.491153 0.805206
v -4.999948 -0.160720 0.980689
v -4.999948 -0.160720 0.980689
v -4.999759 -0.491153 0.805206
v 5.942016 -0.012019 4.157199
v -6.499984 0.523000 -0.048800
v -4.999759 0.491153 0.805206
v -5.349121 0.814175 0.247113
v -6.499984 0.240000 0.109600
v -4.999759 0.491153 0.805206
v -6.499984 0.523000 -0.048800
v -4.999948 0.160720 0.980689
v -4.999759 0.491153 0.805206
v -6.499984 0.240000 0.109600
v 5.942016 0.012019 4.157199
v -4.999759 0.491153 0.805206
v -4.999948 0.160720 0.980689
v 6.614015 -0.063428 4.157199
v 5.942016 -0.012019 4.157199
v 3.804262 -4.682100 -0.938960
v 6.614015 -0.063428 4.157199
v 3.804262 -4.682100 -0.938960
v 4.400283 -4.682100 -0.952940
v 6.614015 0.063428 4.157199
v 3.804262 4.682100 -0.938960
v 5.942016 0.012019 4.157199
v 6.614015 0.063428 4.157199
v 4.400283 4.682100 -0.952940
v 3.804262 4.682100 -0.938960
v -5.349121 -0.814175 0.247113
v -4.999240 -0.870266 0.347384
v -4.999759 -0.491153 0.805206
v -4.999759 0.491153 0.805206
v -4.999240 0.870266 0.347384
v -5.349121 0.814175 0.247113
v -4.999759 -0.491153 0.805206
v -4.649856 -0.514670 0.885149
v 5.942016 -0.012019 4.157199
v 5.942016 0.012019 4.157199
v -4.649856 0.514670 0.885149
v -4.999759 0.491153 0.805206
v -6.499931 -0.693962 -0.748535
v 3.180259 -4.550090 -0.921939
v -6.499984 -0.676000 -0.433500
v -6.499984 -0.676000 -0.433500
v 3.180259 -4.550090 -0.921939
v -6.499984 -0.610000 -0.164800
v -6.499984 -0.610000 -0.164800
v 3.180259 -4.550090 -0.921939
v -5.349121 -0.814175 0.247113
v -5.349121 -0.814175 0.247113
v 3.180259 -4.550090 -0.921939
v -4.999240 -0.870266 0.347384
v 5.942016 -0.012019 4.157199
v 3.180259 -4.550090 -0.921939
v 3.804262 -4.682100 -0.938960
v -6.499984 0.676000 -0.433500
v 3.180259 4.550090 -0.921939
v -6.499931 0.693962 -0.748535
v -6.499984 0.610000 -0.164800
v 3.180259 4.550090 -0.921939
v -6.499984 0.676000 -0.433500
v -5.349121 0.814175 0.247113
v 3.180259 4.550090 -0.921939
v -6.499984 0.610000 -0.164800
v -4.999240 0.870266 0.347384
v 3.180259 4.550090 -0.921939
v -5.349121 0.814175 0.247113
v 3.804262 4.682100 -0.938960
v 3.180259 4.550090 -0.921939
v 5.942016 0.012019 4.157199
v -4.649856 -0.514670 0.885149
v -4.649708 -0.652575 0.753550
v 5.942016 -0.012019 4.157199
v 5.942016 -0.012019 4.157199
v -4.649708 -0.652575 0.753550
v 3.180259 -4.550090 -0.921939
v -4.999759 -0.491153 0.805206
v -4.649708 -0.652575 0.753550
v -4.649856 -0.514670 0.885149
v 5.942016 0.012019 4.157199
v -4.649708 0.652575 0.753550
v -4.649856 0.514670 0.885149
v 3.180259 4.550090 -0.921939
v -4.649708 0.652575 0.753550
v 5.942016 0.012019 4.157199
v -4.649856 0.514670 0.885149
v -4.649708 0.652575 0.753550
v -4.999759 0.491153 0.805206
v -4.999240 -0.870266 0.347384
v -4.649345 -0.922345 0.432259
v -4.999759 -0.491153 0.805206
v -4.999759 -0.491153 0.805206
v -4.649345 -0.922345 0.432259
v -4.649708 -0.652575 0.753550
v 3.180259 -4.550090 -0.921939
v -4.649345 -0.922345 0.432259
v -4.999240 -0.870266 0.347384
v -4.649708 -0.652575 0.753550
v -4.649345 -0.922345 0.432259
v 3.180259 -4.550090 -0.921939
v -4.999759 0.491153 0.805206
v -4.649345 0.922345 0.432259
v -4.999240 0.870266 0.347384
v -4.649708 0.652575 0.753550
v -4.649345 0.922345 0.432259
v -4.999759 0.491153 0.805206
v -4.999240 0.870266 0.347384
v -4.649345 0.922345 0.432259
v 3.180259 4.550090 -0.921939
v 3.180259 4.550090 -0.921939
v -4.649345 0.922345 0.432259
v -4.649708 0.652575 0.753550
v -4.999902 -1.000020 -0.943979
v 2.700250 -4.334102 -0.947940
v -6.499931 -0.693962 -0.748535
v -6.499931 -0.693962 -0.748535
v 2.700250 -4.334102 -0.947940
v 3.180259 -4.550090 -0.921939
v 3.180259 -4.550090 -0.921939
v 2.700250 -4.334102 -0.947940
v 3.804262 -4.682100 -0.938960
v -6.499931 0.693962 -0.748535
v 2.700250 4.334102 -0.947940
v -4.999902 1.000020 -0.943979
v 3.180259 4.550090 -0.921939
v 2.700250 4.334102 -0.947940
v -6.499931 0.693962 -0.748535
v 3.804262 4.682100 -0.938960
v 2.700250 4.334102 -0.947940
v 3.180259 4.550090 -0.921939
v 4.400283 -4.682100 -0.952940
v 5.000295 -1.302926 -1.259946
v 6.130317 -1.100022 -1.106943
v 6.130317 -1.100022 -1.106943
v 5.000295 -1.302926 -1.259946
v 6.130317 1.100022 -1.106943
v 6.130317 1.100022 -1.106943
v 5.000295 1.302926 -1.259946
v 4.400283 4.682100 -0.952940
v 5.000295 -1.302926 -1.259946
v 5.000295 1.302926 -1.259946
v 6.130317 1.100022 -1.106943
v 3.804262 -4.682100 -0.938960
v 1.209237 -1.080021 -1.321617
v 4.400283 -4.682100 -0.952940
v 2.700250 -4.334102 -0.947940
v 1.209237 -1.080021 -1.321617
v 3.804262 -4.682100 -0.938960
v -4.999902 -1.000020 -0.943979
v 1.209237 -1.080021 -1.321617
v 2.700250 -4.334102 -0.947940
v 4.400283 4.682100 -0.952940
v 1.209237 1.080021 -1.321617
v 3.804262 4.682100 -0.938960
v 3.804262 4.682100 -0.938960
v 1.209237 1.080021 -1.321617
v 2.700250 4.334102 -0.947940
v 2.700250 4.334102 -0.947940
v 1.209237 1.080021 -1.321617
v -4.999902 1.000020 -0.943979
v -4.999902 1.000020 -0.943979
v 1.209237 1.080021 -1.321617
v -4.999902 -1.000020 -0.943979
v -4.999902 -1.000020 -0.943979
v 1.209237 1.080021 -1.321617
v 1.209237 -1.080021 -1.321617
v 7.043714 0.000000 4.157199
v 6.299025 -0.780442 -0.683500
v 6.299029 -0.345120 -0.683534
v 6.130317 -1.100022 -1.106943
v 6.130317 1.100022 -1.106943
v 6.299029 -0.345120 -0.683534
v 6.130317 -1.100022 -1.106943
v 6.299029 -0.345120 -0.683534
v 6.299025 -0.780442 -0.683500
v 7.043714 0.000000 4.157199
v 6.299029 0.345120 -0.683534
v 6.299025 0.780442 -0.683500
v 7.043714 0.000000 4.157199
v 6.299029 -0.345120 -0.683534
v 6.299029 0.345120 -0.683534
v 6.299025 0.780442 -0.683500
v 6.299029 0.345120 -0.683534
v 6.130317 1.100022 -1.106943
v 6.130317 1.100022 -1.106943
v 6.299029 0.345120 -0.683534
v 6.299029 -0.345120 -0.683534
v 4.400283 -4.682100 -0.952940
v 2.983248 -1.080021 -1.351649
v 5.000295 -1.302926 -1.259946
v 1.209237 -1.080021 -1.321617
v 2.983248 -1.080021 -1.351649
v 4.400283 -4.682100 -0.952940
v 5.000295 1.302926 -1.259946
v 2.983248 1.080021 -1.351649
v 4.400283 4.682100 -0.952940
v 4.400283 4.682100 -0.952940
v 2.983248 1.080021 -1.351649
v 1.209237 1.080021 -1.321617
v 5.000295 -1.302926 -1.259946
v 2.983248 1.080021 -1.351649
v 5.000295 1.302926 -1.259946
v 2.983248 -1.080021 -1.351649
v 2.983248 1.080021 -1.351649
v 5.000295 -1.302926 -1.259946
v 1.209237 1.080021 -1.321617
v 2.983248 1.080021 -1.351649
v 1.209237 -1.080021 -1.321617
v 1.209237 -1.080021 -1.321617
v 2.983248 1.080021 -1.351649
v 2.983248 -1.080021 -1.351649
v 7.043714 0.000000 4.157199
v 4.400283 -4.682100 -0.952940
v 6.246684 -0.998080 -0.310138
v 4.400283 -4.682100 -0.952940
v 6.130317 -1.100022 -1.106943
v 6.246684 -0.998080 -0.310138
v 7.043714 0.000000 4.157199
v 6.246684 -0.998080 -0.310138
v 6.299025 -0.780442 -0.683500
v 6.130317 -1.100022 -1.106943
v 6.299025 -0.780442 -0.683500
v 6.246684 -0.998080 -0.310138
v 7.043714 0.000000 4.157199
v 6.246684 0.998080 -0.310138
v 4.400283 4.682100 -0.952940
v 6.130317 1.100022 -1.106943
v 4.400283 4.682100 -0.952940
v 6.246684 0.998080 -0.310138
v 7.043714 0.000000 4.157199
v 6.299025 0.780442 -0.683500
v 6.246684 0.998080 -0.310138
v 6.299025 0.780442 -0.683500
v 6.130317 1.100022 -1.106943
v 6.246684 0.998080 -0.310138
vn 0.000000 0.000000 1.000000
vn 0.000000 0.000000 1.000000
vn 0.000000 0.000000 1.000000
vn -0.570372 -0.820141 0.045225
vn -0.570372 0.820141 0.045225
vn -0.581706 -0.791296 0.188332
vn -0.581706 0.791296 0.188332
vn -0.620529 -0.634367 0.461001
vn -0.620529 0.634367 0.461001
vn -0.624682 -0.390588 0.676176
vn -0.624682 0.390588 0.676176
vn -0.631153 -0.133174 0.764140
vn -0.631153 0.133174 0.764140
vn -0.628741 0.000000 0.777615
vn -0.445990 -0.893679 0.049305
vn -0.445990 0.893679 0.049305
vn -0.449819 -0.868850 0.206790
vn -0.445399 -0.893885 0.050891
vn -0.449819 0.868850 0.206790
vn -0.445399 0.893885 0.050891
vn -0.469863 -0.714094 0.518939
vn -0.448281 -0.868089 0.213226
vn -0.469863 0.714094 0.518939
vn -0.448281 0.868089 0.213226
vn -0.457974 -0.444652 0.769769
vn -0.468029 -0.706971 0.530228
vn -0.457974 0.444652 0.769769
vn -0.468029 0.706971 0.530228
vn -0.453426 -0.435322 0.777753
vn -0.453426 0.435322 0.777753
vn -0.133189 -0.032037 -0.990573
vn -0.141149 -0.060793 -0.988120
vn -0.133189 0.032037 -0.990573
vn -0.121349 0.000000 -0.992610
vn -0.141149 0.060793 -0.988120
vn -0.335948 -0.753504 0.565128
vn -0.335948 0.753504 0.565128
vn 0.112317 -0.760905 0.639069
vn -0.480415 -0.150581 0.864018
vn -0.457857 -0.344051 0.819754
vn -0.278795 0.000000 0.960351
vn -0.480133 0.000000 0.877195
vn -0.480415 0.150581 0.864018
vn -0.457857 0.344051 0.819754
vn -0.480133 0.000000 0.877195
vn -0.278795 0.000000 0.960351
vn 0.112317 0.760905 0.639069
vn -0.338533 -0.706881 0.621059
vn -0.437379 -0.439221 0.784719
vn -0.438570 -0.421713 0.793609
vn -0.242535 -0.455135 0.856755
vn -0.338533 0.706881 0.621059
vn -0.437379 0.439221 0.784719
vn -0.438570 0.421713 0.793609
vn -0.242535 0.455135 0.856755
vn -0.055420 -0.724434 0.687113
vn 0.015638 -0.745151 0.666712
vn -0.055420 0.724434 0.687113
vn 0.015638 0.745151 0.666712
vn -0.292805 -0.736614 0.609643
vn -0.292805 0.736614 0.609643
vn -0.220100 -0.560252 0.798545
vn -0.220100 0.560252 0.798545
vn -0.368736 -0.928030 0.052850
vn -0.352450 -0.908816 0.223230
vn -0.307986 -0.841847 0.443214
vn -0.279574 -0.802995 0.526344
vn -0.129725 -0.703321 0.698936
vn -0.368736 0.928030 0.052850
vn -0.352450 0.908816 0.223230
vn -0.307986 0.841847 0.443214
vn -0.279574 0.802995 0.526344
vn -0.129725 0.703321 0.698936
vn -0.187316 -0.678258 0.710548
vn -0.186736 -0.679965 0.709067
vn -0.207083 -0.675524 0.707661
vn -0.187316 0.678258 0.710548
vn -0.186736 0.679965 0.709067
vn -0.207083 0.675524 0.707661
vn -0.260062 -0.743851 0.615673
vn -0.250145 -0.741631 0.622423
vn -0.256224 -0.770752 0.583344
vn -0.236784 -0.744192 0.624589
vn -0.260062 0.743851 0.615673
vn -0.250145 0.741631 0.622423
vn -0.256224 0.770752 0.583344
vn -0.236784 0.744192 0.624589
vn -0.209229 -0.482208 -0.850705
vn -0.317062 -0.771103 -0.552153
vn -0.093786 -0.321845 -0.942136
vn -0.209229 0.482208 -0.850705
vn -0.317062 0.771103 -0.552153
vn -0.093786 0.321845 -0.942136
vn 0.153765 -0.116449 -0.981222
vn 0.134174 0.000000 -0.990958
vn 0.153765 0.116449 -0.981222
vn 0.134174 0.000000 -0.990958
vn -0.023273 -0.122174 -0.992236
vn -0.032510 -0.128713 -0.991149
vn -0.061914 -0.141819 -0.987954
vn -0.023273 0.122174 -0.992236
vn -0.032510 0.128713 -0.991149
vn -0.061914 0.141819 -0.987954
vn -0.060708 -0.000000 -0.998156
vn -0.060708 0.000000 -0.998156
vn 0.988373 -0.000021 -0.152047
vn 0.928969 0.000000 -0.370158
vn 0.928992 -0.000037 -0.370100
vn 0.988373 0.000021 -0.152047
vn 0.988373 0.000000 -0.152049
vn 0.928992 0.000037 -0.370100
vn 0.928969 0.000000 -0.370158
vn 0.034559 -0.096510 -0.994732
vn -0.016811 -0.116532 -0.993045
vn 0.034559 0.096510 -0.994732
vn -0.016811 0.116532 -0.993045
vn 0.045417 0.000000 -0.998968
vn 0.045417 0.000000 -0.998968
vn -0.016926 -0.000000 -0.999857
vn -0.016926 0.000000 -0.999857
vn 0.896572 -0.438540 -0.061983
vn 0.896663 -0.436291 -0.075132
vn 0.926781 -0.366194 -0.083536
vn 0.924078 -0.372087 -0.087350
vn 0.896572 0.438540 -0.061983
vn 0.896663 0.436291 -0.075132
vn 0.926781 0.366194 -0.083536
vn 0.924078 0.372087 -0.087350
f 1//1 2//1 3//1
f 4//2 5//2 6//2
f 7//3 8//3 9//3
f 10//4 11//4 12//4
f 13//5 14//5 15//5
f 16//6 17//6 18//6
f 19//7 20//7 21//7
f 22//8 23//8 24//8
f 25//9 26//9 27//9
f 28//10 29//10 30//10
f 31//11 32//11 33//11
f 34//12 35//12 36//12
f 37//13 38//13 39//13
f 40//14 41//14 42//14
f 43//15 44//15 45//15
f 46//16 47//16 48//16
f 49//17 50//17 51//17
f 52//18 53//18 54//18
f 55//19 56//19 57//19
f 58//20 59//20 60//20
f 61//21 62//21 63//21
f 64//22 65//22 66//22
f 67//23 68//23 69//23
f 70//24 71//24 72//24
f 73//25 74//25 75//25
f 76//26 77//26 78//26
f 79//27 80//27 81//27
f 82//28 83//28 84//28
f 85//29 86//29 87//29
f 88//30 89//30 90//30
f 91//31 92//31 93//31
f 94//32 95//32 96//32
f 97//33 98//33 99//33
f 100//34 101//34 102//34
f 103//35 104//35 105//35
f 106//36 107//36 108//36
f 109//37 110//37 111//37
f 112//38 113//38 114//38
f 115//39 116//39 117//39
f 118//40 119//40 120//40
f 121//41 122//41 123//41
f 124//42 125//42 126//42
f 127//43 128//43 129//43
f 130//44 131//44 132//44
f 133//45 134//45 135//45
f 136//46 137//46 138//46
f 139//47 140//47 141//47
f 142//48 143//48 144//48
f 145//49 146//49 147//49
f 148//50 149//50 150//50
f 151//51 152//51 153//51
f 154//52 155//52 156//52
f 157//53 158//53 159//53
f 160//54 161//54 162//54
f 163//55 164//55 165//55
f 166//56 167//56 168//56
f 169//57 170//57 171//57
f 172//58 173//58 174//58
f 175//59 176//59 177//59
f 178//60 179//60 180//60
f 181//61 182//61 183//61
f 184//62 185//62 186//62
f 187//63 188//63 189//63
f 190//64 191//64 192//64
f 193//65 194//65 195//65
f 196//66 197//66 198//66
f 199//67 200//67 201//67
f 202//68 203//68 204//68
f 205//69 206//69 207//69
f 208//70 209//70 210//70
f 211//71 212//71 213//71
f 214//72 215//72 216//72
f 217//73 218//73 219//73
f 220//74 221//74 222//74
f 223//75 224//75 225//75
f 226//76 227//76 228//76
f 229//77 230//77 231//77
f 232//78 233//78 234//78
f 235//79 236//79 237//79
f 238//80 239//80 240//80
f 241//81 242//81 243//81
f 244//82 245//82 246//82
f 247//83 248//83 249//83
f 250//84 251//84 252//84
f 253//85 254//85 255//85
f 256//86 257//86 258//86
f 259//87 260//87 261//87
f 262//88 263//88 264//88
f 265//89 266//89 267//89
f 268//90 269//90 270//90
f 271//91 272//91 273//91
f 274//92 275//92 276//92
f 277//93 278//93 279//93
f 280//94 281//94 282//94
f 283//95 284//95 285//95
f 286//96 287//96 288//96
f 289//97 290//97 291//97
f 292//98 293//98 294//98
f 295//99 296//99 297//99
f 298//100 299//100 300//100
f 301//101 302//101 303//101
f 304//102 305//102 306//102
f 307//103 308//103 309//103
f 310//104 311//104 312//104
f 313//105 314//105 315//105
f 316//106 317//106 318//106
f 319//107 320//107 321//107
f 322//108 323//108 324//108
f 325//109 326//109 327//109
f 328//110 329//110 330//110
f 331//111 332//111 333//111
f 334//112 335//112 336//112
f 337//113 338//113 339//113
f 340//114 341//114 342//114
f 343//115 344//115 345//115
f 346//116 347//116 348//116
f 349//117 350//117 351//117
f 352//118 353//118 354//118
f 355//119 356//119 357//119
f 358//120 359//120 360//120
f 361//121 362//121 363//121
f 364//122 365//122 366//122
f 367//123 368//123 369//123
f 370//124 371//124 372//124
f 373//125 374//125 375//125
f 376//126 377//126 378//126
f 379//127 380//127 381//127
f 382//128 383//128 384//128
