o
v 66.013199 -37.197498 -49.111900
v 69.302101 -29.148199 56.917702
v 19.899599 -36.900398 77.417900
v 19.899599 -36.900398 77.417900
v -45.128399 -27.002501 66.550102
v -65.899200 -27.764200 50.942200
v 69.302101 -29.148199 56.917702
v 60.023701 -25.110701 58.476700
v 19.899599 -36.900398 77.417900
v 66.013199 -37.197498 -49.111900
v 19.899599 -36.900398 77.417900
v -2.178280 -39.811901 0.238979
v -45.128399 -27.028400 -66.550102
v 66.013199 -37.197498 -49.111900
v -2.178280 -39.811901 0.238979
v -78.017700 -27.576500 -13.366200
v -2.178280 -39.811901 0.238979
v -65.899200 -27.764200 50.942200
v 69.302101 -29.148199 56.917702
v 68.717102 -24.553101 47.345001
v 60.023701 -25.110701 58.476700
v 19.899599 -36.900398 77.417900
v -65.899200 -27.764200 50.942200
v -2.172240 -39.747700 1.523740
v 19.899599 -36.900398 77.417900
v -2.172240 -39.747700 1.523740
v -2.178280 -39.811901 0.238979
v -2.178280 -39.811901 0.238979
v -2.172240 -39.747700 1.523740
v -65.899200 -27.764200 50.942200
v -45.128399 -27.028400 -66.550102
v -2.178280 -39.811901 0.238979
v -3.275810 -39.636398 -0.408635
v -78.017700 -27.576500 -13.366200
v -3.275810 -39.636398 -0.408635
v -2.178280 -39.811901 0.238979
v -78.017700 -27.576500 -13.366200
v -45.128399 -27.028400 -66.550102
v -3.275810 -39.636398 -0.408635
v 60.023701 -25.110701 58.476700
v 27.167200 -27.419201 69.912201
v 19.899599 -36.900398 77.417900
v 66.013199 -37.197498 -49.111900
v 83.962700 -22.815500 -4.889700
v 69.302101 -29.148199 56.917702
v 69.302101 -29.148199 56.917702
v 83.962700 -22.815500 -4.889700
v 68.717102 -24.553101 47.345001
v 19.899599 -36.900398 77.417900
v 9.441160 -26.503599 72.611000
v -45.128399 -27.002501 66.550102
v 66.013199 -37.197498 -49.111900
v 55.457199 -25.045700 -53.575199
v 83.962700 -22.815500 -4.889700
v -78.017700 -27.576500 -13.366200
v -49.278900 -24.648500 -57.078899
v -45.128399 -27.028400 -66.550102
v -78.017700 -27.576500 -13.366200
v -70.772499 -22.988800 -19.898300
v -49.278900 -24.648500 -57.078899
v 68.717102 -24.553101 47.345001
v 51.441700 -20.448200 57.213402
v 60.023701 -25.110701 58.476700
v -45.128399 -27.028400 -66.550102
v 17.270100 -9.858780 -77.667900
v 66.013199 -37.197498 -49.111900
v 66.013199 -37.197498 -49.111900
v 17.270100 -9.858780 -77.667900
v 55.457199 -25.045700 -53.575199
v 83.962700 -22.815500 -4.889700
v 78.001602 -20.341700 2.932930
v 68.717102 -24.553101 47.345001
v -78.017700 -27.576500 -13.366200
v -65.899200 -27.764200 50.942200
v -73.414902 -22.006901 -6.513850
v -78.017700 -27.576500 -13.366200
v -73.414902 -22.006901 -6.513850
v -70.772499 -22.988800 -19.898300
v 78.001602 -20.341700 2.932930
v 65.491203 -20.636801 39.176399
v 68.717102 -24.553101 47.345001
v -45.128399 -27.002501 66.550102
v -54.929100 -20.513800 50.274502
v -65.899200 -27.764200 50.942200
v -65.899200 -27.764200 50.942200
v -64.056099 -20.807800 31.999300
v -73.414902 -22.006901 -6.513850
v -54.929100 -20.513800 50.274502
v -64.056099 -20.807800 31.999300
v -65.899200 -27.764200 50.942200
v -49.278900 -24.648500 -57.078899
v -48.300800 -19.636299 -47.577099
v -45.128399 -27.028400 -66.550102
v 68.717102 -24.553101 47.345001
v 44.644798 -16.376499 54.362499
v 51.441700 -20.448200 57.213402
v 65.491203 -20.636801 39.176399
v 44.644798 -16.376499 54.362499
v 68.717102 -24.553101 47.345001
v 55.457199 -25.045700 -53.575199
v 47.423000 -14.290700 -52.141602
v 83.962700 -22.815500 -4.889700
v 76.969398 -20.552700 -12.801700
v 83.962700 -22.815500 -4.889700
v 47.423000 -14.290700 -52.141602
v 17.270100 -9.858780 -77.667900
v 47.423000 -14.290700 -52.141602
v 55.457199 -25.045700 -53.575199
v 78.001602 -20.341700 2.932930
v 61.123901 -17.307800 33.170799
v 65.491203 -20.636801 39.176399
v 65.491203 -20.636801 39.176399
v 61.123901 -17.307800 33.170799
v 44.644798 -16.376499 54.362499
v 27.167200 -27.419201 69.912201
v 3.634550 -14.864900 66.649597
v 19.899599 -36.900398 77.417900
v 19.899599 -36.900398 77.417900
v 3.634550 -14.864900 66.649597
v 9.441160 -26.503599 72.611000
v 9.441160 -26.503599 72.611000
v 3.634550 -14.864900 66.649597
v -45.128399 -27.002501 66.550102
v 60.023701 -25.110701 58.476700
v 3.634550 -14.864900 66.649597
v 27.167200 -27.419201 69.912201
v 51.441700 -20.448200 57.213402
v 3.634550 -14.864900 66.649597
v 60.023701 -25.110701 58.476700
v 44.644798 -16.376499 54.362499
v 3.634550 -14.864900 66.649597
v 51.441700 -20.448200 57.213402
v 83.962700 -22.815500 -4.889700
v 65.925301 -15.599700 -16.764999
v 78.001602 -20.341700 2.932930
v 76.969398 -20.552700 -12.801700
v 65.925301 -15.599700 -16.764999
v 83.962700 -22.815500 -4.889700
v 76.969398 -20.552700 -12.801700
v 47.423000 -14.290700 -52.141602
v 65.925301 -15.599700 -16.764999
v 17.270100 -9.858780 -77.667900
v -0.804521 9.231520 -11.786400
v 47.423000 -14.290700 -52.141602
v 47.423000 -14.290700 -52.141602
v -0.804521 9.231520 -11.786400
v 65.925301 -15.599700 -16.764999
v -64.056099 -20.807800 31.999300
v -60.512501 -15.830400 18.754601
v -73.414902 -22.006901 -6.513850
v -73.414902 -22.006901 -6.513850
v -60.512501 -15.830400 18.754601
v -66.727303 -17.610701 -2.473130
v -70.772499 -22.988800 -19.898300
v -56.180199 -12.665200 -23.421400
v -49.278900 -24.648500 -57.078899
v -49.278900 -24.648500 -57.078899
v -56.180199 -12.665200 -23.421400
v -48.300800 -19.636299 -47.577099
v -73.414902 -22.006901 -6.513850
v -56.180199 -12.665200 -23.421400
v -70.772499 -22.988800 -19.898300
v -73.414902 -22.006901 -6.513850
v -66.727303 -17.610701 -2.473130
v -56.180199 -12.665200 -23.421400
v -0.804521 9.231520 -11.786400
v -56.180199 -12.665200 -23.421400
v -10.534500 8.528950 -0.353300
v -45.128399 -27.028400 -66.550102
v -2.925900 -3.999150 -51.843399
v 17.270100 -9.858780 -77.667900
v -48.300800 -19.636299 -47.577099
v -2.925900 -3.999150 -51.843399
v -45.128399 -27.028400 -66.550102
v 17.270100 -9.858780 -77.667900
v -2.925900 -3.999150 -51.843399
v -0.804521 9.231520 -11.786400
v -56.180199 -12.665200 -23.421400
v -2.925900 -3.999150 -51.843399
v -48.300800 -19.636299 -47.577099
v -0.804521 9.231520 -11.786400
v -2.925900 -3.999150 -51.843399
v -56.180199 -12.665200 -23.421400
v 65.925301 -15.599700 -16.764999
v 10.083700 6.675500 0.109575
v 78.001602 -20.341700 2.932930
v -0.804521 9.231520 -11.786400
v 10.083700 6.675500 0.109575
v 65.925301 -15.599700 -16.764999
v -0.804521 9.231520 -11.786400
v -10.534500 8.528950 -0.353300
v 10.083700 6.675500 0.109575
v -45.128399 -27.002501 66.550102
v -43.058498 -10.621000 38.440498
v -54.929100 -20.513800 50.274502
v 3.634550 -14.864900 66.649597
v -43.058498 -10.621000 38.440498
v -45.128399 -27.002501 66.550102
v -54.929100 -20.513800 50.274502
v -43.058498 -10.621000 38.440498
v -64.056099 -20.807800 31.999300
v -64.056099 -20.807800 31.999300
v -43.058498 -10.621000 38.440498
v -60.512501 -15.830400 18.754601
v 3.634550 -14.864900 66.649597
v -10.534500 8.528950 -0.353300
v -43.058498 -10.621000 38.440498
v 78.001602 -20.341700 2.932930
v 52.693699 -12.350900 25.428600
v 61.123901 -17.307800 33.170799
v 61.123901 -17.307800 33.170799
v 52.693699 -12.350900 25.428600
v 44.644798 -16.376499 54.362499
v 44.644798 -16.376499 54.362499
v 52.693699 -12.350900 25.428600
v 10.083700 6.675500 0.109575
v 10.083700 6.675500 0.109575
v 57.278099 -12.554500 12.557400
v 78.001602 -20.341700 2.932930
v 78.001602 -20.341700 2.932930
v 57.278099 -12.554500 12.557400
v 52.693699 -12.350900 25.428600
v 52.693699 -12.350900 25.428600
v 57.278099 -12.554500 12.557400
v 10.083700 6.675500 0.109575
v -10.534500 8.528950 -0.353300
v -1.095320 4.954070 9.935340
v 10.083700 6.675500 0.109575
v 3.634550 -14.864900 66.649597
v -1.095320 4.954070 9.935340
v -10.534500 8.528950 -0.353300
v 44.644798 -16.376499 54.362499
v 24.929899 -9.420260 44.239201
v 3.634550 -14.864900 66.649597
v 3.634550 -14.864900 66.649597
v 24.929899 -9.420260 44.239201
v -1.095320 4.954070 9.935340
v 44.644798 -16.376499 54.362499
v 10.083700 6.675500 0.109575
v 24.929899 -9.420260 44.239201
v -1.095320 4.954070 9.935340
v 24.929899 -9.420260 44.239201
v 10.083700 6.675500 0.109575
v -60.512501 -15.830400 18.754601
v -50.671001 -9.553250 2.353840
v -66.727303 -17.610701 -2.473130
v -66.727303 -17.610701 -2.473130
v -50.671001 -9.553250 2.353840
v -56.180199 -12.665200 -23.421400
v -56.180199 -12.665200 -23.421400
v -50.671001 -9.553250 2.353840
v -10.534500 8.528950 -0.353300
v -43.058498 -10.621000 38.440498
v -37.080101 -3.695370 5.486920
v -60.512501 -15.830400 18.754601
v -10.534500 8.528950 -0.353300
v -37.080101 -3.695370 5.486920
v -43.058498 -10.621000 38.440498
v -60.512501 -15.830400 18.754601
v -37.080101 -3.695370 5.486920
v -50.671001 -9.553250 2.353840
v -50.671001 -9.553250 2.353840
v -37.080101 -3.695370 5.486920
v -10.534500 8.528950 -0.353300
vn 0.182456 -0.980804 0.068799
vn -0.192563 -0.933713 0.301828
vn 0.307005 0.366348 0.878372
vn 0.054288 -0.998280 0.022129
vn -0.067478 -0.987050 -0.145529
vn -0.164113 -0.986043 0.028048
vn 0.422239 0.827007 0.371177
vn -0.128267 -0.988945 0.074405
vn -0.043433 -0.997801 0.050065
vn -0.146948 -0.987877 0.050056
vn -0.074720 -0.987200 -0.140901
vn -0.159872 -0.987132 0.003427
vn -0.141957 -0.985016 -0.097939
vn 0.260908 0.468290 0.844175
vn 0.553175 -0.831795 0.045987
vn 0.761284 0.601485 0.242202
vn -0.107293 0.326287 0.939162
vn 0.747150 0.480275 -0.459459
vn -0.735578 0.506681 -0.449665
vn -0.729834 0.518898 -0.445070
vn 0.404493 0.841539 0.358046
vn 0.054019 -0.673614 -0.737106
vn 0.581093 0.216651 -0.784470
vn 0.584906 0.786842 0.196889
vn -0.849059 0.503019 0.161468
vn -0.637316 0.749098 -0.180776
vn 0.527476 0.828322 0.188817
vn -0.437811 0.712874 0.547843
vn -0.750256 0.640902 0.162360
vn -0.523538 0.815002 0.248354
vn -0.418703 0.820301 -0.389608
vn 0.386456 0.866444 0.316111
vn 0.379905 0.883633 0.273613
vn 0.693724 0.575883 -0.432557
vn 0.640381 0.670739 -0.374194
vn 0.593622 0.524772 -0.610104
vn 0.447861 0.879350 0.161751
vn 0.358705 0.902260 0.239285
vn 0.167402 0.529854 0.831403
vn 0.085443 0.487655 0.868845
vn -0.104318 0.411676 0.905340
vn 0.221250 0.612039 0.759248
vn 0.221301 0.612868 0.758563
vn 0.208868 0.770418 0.602354
vn 0.375404 0.926834 -0.007028
vn 0.447218 0.882957 -0.142767
vn 0.461755 0.861885 -0.209611
vn 0.297858 0.935633 -0.189398
vn 0.335980 0.931215 -0.141264
vn -0.618315 0.775748 0.126099
vn -0.590004 0.800465 0.105602
vn -0.594021 0.711613 -0.375161
vn -0.449939 0.808181 -0.379999
vn -0.596455 0.783288 -0.175217
vn -0.521870 0.850776 -0.061900
vn -0.319635 0.922752 -0.215318
vn -0.310091 0.845665 -0.434389
vn -0.332573 0.858600 -0.390129
vn -0.116996 0.944853 -0.305885
vn -0.334034 0.870974 -0.360314
vn -0.300146 0.910385 -0.284801
vn 0.369727 0.929136 -0.002994
vn 0.339423 0.934186 -0.109946
vn 0.085753 0.987312 0.133650
vn -0.230983 0.847929 0.477141
vn -0.212787 0.850939 0.480235
vn -0.480487 0.847293 0.226334
vn -0.475880 0.857626 0.194977
vn -0.127672 0.927671 0.350892
vn 0.406279 0.903554 0.136113
vn 0.335678 0.915736 0.220787
vn 0.291347 0.933087 0.210869
vn 0.367867 0.928999 0.040439
vn 0.400506 0.907268 0.128299
vn 0.350043 0.930257 0.109961
vn 0.080647 0.962149 0.260318
vn -0.002257 0.943958 0.330057
vn 0.141446 0.922719 0.358584
vn 0.097065 0.942055 0.321109
vn 0.188387 0.941344 0.279967
vn 0.121501 0.944961 0.303788
vn -0.462305 0.884609 0.061159
vn -0.445382 0.895248 -0.012891
vn -0.411888 0.910970 -0.021948
vn -0.403397 0.907446 0.117528
vn -0.393307 0.911514 0.120214
vn -0.412983 0.905374 0.098702
vn -0.406677 0.911621 0.059666
f 1//1 2//1 3//1
f 4//2 5//2 6//2
f 7//3 8//3 9//3
f 10//4 11//4 12//4
f 13//5 14//5 15//5
f 16//6 17//6 18//6
f 19//7 20//7 21//7
f 22//8 23//8 24//8
f 25//9 26//9 27//9
f 28//10 29//10 30//10
f 31//11 32//11 33//11
f 34//12 35//12 36//12
f 37//13 38//13 39//13
f 40//14 41//14 42//14
f 43//15 44//15 45//15
f 46//16 47//16 48//16
f 49//17 50//17 51//17
f 52//18 53//18 54//18
f 55//19 56//19 57//19
f 58//20 59//20 60//20
f 61//21 62//21 63//21
f 64//22 65//22 66//22
f 67//23 68//23 69//23
f 70//24 71//24 72//24
f 73//25 74//25 75//25
f 76//26 77//26 78//26
f 79//27 80//27 81//27
f 82//28 83//28 84//28
f 85//29 86//29 87//29
f 88//30 89//30 90//30
f 91//31 92//31 93//31
f 94//32 95//32 96//32
f 97//33 98//33 99//33
f 100//34 101//34 102//34
f 103//35 104//35 105//35
f 106//36 107//36 108//36
f 109//37 110//37 111//37
f 112//38 113//38 114//38
f 115//39 116//39 117//39
f 118//40 119//40 120//40
f 121//41 122//41 123//41
f 124//42 125//42 126//42
f 127//43 128//43 129//43
f 130//44 131//44 132//44
f 133//45 134//45 135//45
f 136//46 137//46 138//46
f 139//47 140//47 141//47
f 142//48 143//48 144//48
f 145//49 146//49 147//49
f 148//50 149//50 150//50
f 151//51 152//51 153//51
f 154//52 155//52 156//52
f 157//53 158//53 159//53
f 160//54 161//54 162//54
f 163//55 164//55 165//55
f 166//56 167//56 168//56
f 169//57 170//57 171//57
f 172//58 173//58 174//58
f 175//59 176//59 177//59
f 178//60 179//60 180//60
f 181//61 182//61 183//61
f 184//62 185//62 186//62
f 187//63 188//63 189//63
f 190//64 191//64 192//64
f 193//65 194//65 195//65
f 196//66 197//66 198//66
f 199//67 200//67 201//67
f 202//68 203//68 204//68
f 205//69 206//69 207//69
f 208//70 209//70 210//70
f 211//71 212//71 213//71
f 214//72 215//72 216//72
f 217//73 218//73 219//73
f 220//74 221//74 222//74
f 223//75 224//75 225//75
f 226//76 227//76 228//76
f 229//77 230//77 231//77
f 232//78 233//78 234//78
f 235//79 236//79 237//79
f 238//80 239//80 240//80
f 241//81 242//81 243//81
f 244//82 245//82 246//82
f 247//83 248//83 249//83
f 250//84 251//84 252//84
f 253//85 254//85 255//85
f 256//86 257//86 258//86
f 259//87 260//87 261//87
f 262//88 263//88 264//88
